<svg version="1.1" class='sbc-svg' id="Capa_1" xmlns="http://www.w3.org/2000/svg" 
xmlns:xlink="http://www.w3.org/1999/xlink" x="0px" y="0px" viewBox="0 0 512 512"
                  style="enable-background:new 0 0 512 512;" xml:space="preserve">
                  <g>
                    <g>
                      <path
                        d="M271,241V67h0.068c63.618,0,116.614,46.318,127.057,107H363l50,50l50-50h-34.52C417.763,96.707,351.263,37,271.068,37H271V0H0v271h241v174h-0.068c-64.316,0-117.78-47.338-127.39-109H147l-50-50l-50,50h36.247c9.836,78.261,76.799,139,157.685,139H241v37h271V241H271z M241,241H30V30h211V241z M482,482H271V271h211V482z" />
                    </g>
                  </g>
                  <g>
                    <g>
                      <path
                        d="M95.181,92.9h-17.38L48.651,171h22.77l4.62-15.29h20.79l4.73,15.29h22.66L95.181,92.9z M79.231,141.41l7.26-26.18l6.93,26.18H79.231z" />
                    </g>
                  </g>
                  <g>
                    <g>
                      <path
                        d="M213.925,137.835c-2.604-3.262-6.143-5.555-10.615-6.875c3.74-1.687,6.545-4.197,8.415-7.535c1.87-3.336,2.805-6.837,2.805-10.505c0-2.492-0.423-4.931-1.265-7.314c-0.844-2.383-2.035-4.511-3.575-6.381c-1.54-1.869-3.41-3.391-5.61-4.564c-2.2-1.172-4.658-1.76-7.37-1.76h-45.32V171h38.39c3.812,0,7.425-0.385,10.835-1.155c3.41-0.77,6.397-1.961,8.965-3.575c2.566-1.611,4.583-3.685,6.05-6.215c1.466-2.529,2.2-5.555,2.2-9.074C217.83,145.481,216.527,141.099,213.925,137.835z M172.84,111.16L172.84,111.16h15.29c1.392,0,2.602,0.459,3.63,1.375c1.026,0.918,1.54,2.438,1.54,4.564c0,2.42-0.605,4.034-1.815,4.841c-1.21,0.808-2.549,1.21-4.015,1.21h-14.63V111.16zM194.235,151.31c-1.21,1.101-2.695,1.65-4.455,1.65h-16.94v-13.09h17.71c1.612,0,2.932,0.643,3.96,1.925c1.026,1.284,1.54,2.879,1.54,4.785C196.05,148.634,195.445,150.21,194.235,151.31z" />
                    </g>
                  </g>
                  <g>
                    <g>
                      <path
                        d="M364,368c0,7.067-1.329,13.826-3.729,20.058l-36.165-36.165l-21.213,21.213l39.242,39.242C332.678,419.645,320.841,424,308,424v30c47.42,0,86-38.579,86-86H364z" />
                    </g>
                  </g>
                  <g>
                    <g>
                      <polygon points="368,307 368,292 338,292 338,307 305,307 305,337 453,337 453,307 		" />
                    </g>
                  </g>
                  <g>
                    <g>
                      <rect x="411" y="356" width="30" height="97" />
                    </g>
                  </g>
                  <g></g>
                  <g></g>
                  <g></g>
                  <g></g>
                  <g></g>
                  <g></g>
                  <g></g>
                  <g></g>
                  <g></g>
                  <g></g>
                  <g></g>
                  <g></g>
                  <g></g>
                  <g></g>
                  <g></g>
</svg>